<svg width="50" height="45" viewBox="0 0 50 45" fill="none" xmlns="http://www.w3.org/2000/svg" class="header-logo-module--logo--uMuRO"><path d="M31.968 34.681a2.007 2.007 0 002.011-2.003c0-1.106-.9-2.003-2.011-2.003a2.007 2.007 0 00-2.012 2.003c0 1.106.9 2.003 2.012 2.003z" fill="#7D64FF"></path><path d="M39.575 0L27.154 16.883 16.729 9.31 0 45h50L39.575 0zM23.663 37.17l-2.97-4.072v4.072h-2.751V22.038l2.75 1.989v7.66l3.659-5.014 2.086 1.51-3.071 4.21 3.486 4.776h-3.189v.001zm8.305.17c-2.586 0-4.681-2.088-4.681-4.662 0-1.025.332-1.972.896-2.743l4.695-6.435 2.086 1.51-2.239 3.07a4.667 4.667 0 013.924 4.6c0 2.572-2.095 4.66-4.681 4.66z" fill="#7D64FF"></path></svg>